<svg width="28" height="28" viewBox="0 0 28 28" fill="none" xmlns="http://www.w3.org/2000/svg">
<g id="material-symbols:keyboard-arrow-down-rounded">
<path id="Vector" d="M13.9998 17.4708C13.8442 17.4708 13.6933 17.4417 13.5471 17.3833C13.4009 17.325 13.2795 17.2472 13.1831 17.15L7.81644 11.7833C7.60255 11.5694 7.49561 11.2972 7.49561 10.9667C7.49561 10.6361 7.60255 10.3639 7.81644 10.15C8.03033 9.93611 8.30255 9.82916 8.63311 9.82916C8.96366 9.82916 9.23588 9.93611 9.44977 10.15L13.9998 14.7L18.5498 10.15C18.7637 9.93611 19.0359 9.82916 19.3664 9.82916C19.697 9.82916 19.9692 9.93611 20.1831 10.15C20.397 10.3639 20.5039 10.6361 20.5039 10.9667C20.5039 11.2972 20.397 11.5694 20.1831 11.7833L14.8164 17.15C14.6998 17.2667 14.5734 17.3495 14.4373 17.3985C14.3012 17.4475 14.1553 17.4716 13.9998 17.4708Z" fill="#040404"/>
</g>
</svg>
