<svg width="24" height="25" viewBox="0 0 24 25" fill="none" xmlns="http://www.w3.org/2000/svg">
<g id="logos:google-icon" clip-path="url(#clip0_35_243)">
<path id="Vector" d="M23.9885 12.7245C23.9885 11.7413 23.9069 11.0237 23.7301 10.2796H12.239V14.7176H18.984C18.8481 15.8205 18.1138 17.4815 16.4819 18.5976L16.459 18.7461L20.0923 21.4963L20.344 21.5209C22.6558 19.4347 23.9885 16.3653 23.9885 12.7245Z" fill="#4285F4"/>
<path id="Vector_2" d="M12.239 24.4176C15.5435 24.4176 18.3177 23.3545 20.344 21.5209L16.4819 18.5976C15.4484 19.3018 14.0612 19.7934 12.239 19.7934C9.00248 19.7934 6.25551 17.7074 5.27629 14.824L5.13276 14.8359L1.35483 17.6927L1.30542 17.8269C3.31804 21.7334 7.45214 24.4176 12.239 24.4176Z" fill="#34A853"/>
<path id="Vector_3" d="M5.27634 14.824C5.01797 14.0799 4.86844 13.2826 4.86844 12.4588C4.86844 11.6349 5.01797 10.8377 5.26275 10.0936L5.25591 9.93511L1.43062 7.03239L1.30547 7.09056C0.475969 8.71166 0 10.5321 0 12.4588C0 14.3855 0.475969 16.2058 1.30547 17.8269L5.27634 14.824Z" fill="#FBBC05"/>
<path id="Vector_4" d="M12.239 5.12403C14.5372 5.12403 16.0875 6.09402 16.9714 6.90461L20.4255 3.60928C18.3042 1.6826 15.5435 0.5 12.239 0.5C7.45214 0.5 3.31804 3.18406 1.30542 7.09056L5.2627 10.0936C6.25551 7.2102 9.00248 5.12403 12.239 5.12403Z" fill="#EB4335"/>
</g>
<defs>
<clipPath id="clip0_35_243">
<rect width="24" height="24" fill="white" transform="translate(0 0.5)"/>
</clipPath>
</defs>
</svg>
