<svg width="32" height="33" viewBox="0 0 32 33" fill="none" xmlns="http://www.w3.org/2000/svg">
<g id="material-symbols:location-on-outline">
<path id="Vector" d="M16 16.5001C16.7333 16.5001 17.3613 16.2387 17.884 15.7161C18.4066 15.1934 18.6675 14.5659 18.6666 13.8334C18.6666 13.1001 18.4053 12.4721 17.8826 11.9494C17.36 11.4267 16.7324 11.1659 16 11.1667C15.2666 11.1667 14.6386 11.4281 14.116 11.9507C13.5933 12.4734 13.3324 13.101 13.3333 13.8334C13.3333 14.5667 13.5946 15.1947 14.1173 15.7174C14.64 16.2401 15.2675 16.501 16 16.5001ZM16 26.3001C18.7111 23.8112 20.7222 21.5499 22.0333 19.5161C23.3444 17.4823 24 15.677 24 14.1001C24 11.6779 23.2275 9.69475 21.6826 8.15075C20.1378 6.60675 18.2435 5.8343 16 5.83341C13.7555 5.83341 11.8609 6.60586 10.316 8.15075C8.77109 9.69564 7.99909 11.6787 7.99998 14.1001C7.99998 15.6779 8.65554 17.4836 9.96665 19.5174C11.2778 21.5512 13.2889 23.8121 16 26.3001ZM16 29.8334C12.4222 26.789 9.7502 23.9614 7.98398 21.3507C6.21776 18.7401 5.3342 16.3232 5.33331 14.1001C5.33331 10.7667 6.40576 8.11119 8.55065 6.13341C10.6955 4.15564 13.1786 3.16675 16 3.16675C18.8222 3.16675 21.3058 4.15564 23.4506 6.13341C25.5955 8.11119 26.6675 10.7667 26.6666 14.1001C26.6666 16.3223 25.7831 18.7392 24.016 21.3507C22.2489 23.9623 19.5769 26.7899 16 29.8334Z" fill="#040404"/>
</g>
</svg>
