<svg width="24" height="25" viewBox="0 0 24 25" fill="none" xmlns="http://www.w3.org/2000/svg">
<g id="material-symbols:arrow-back-rounded">
<path id="Vector" d="M10.875 19.8001L4.275 13.2001C4.175 13.1001 4.104 12.9917 4.062 12.8751C4.02067 12.7584 4 12.6334 4 12.5001C4 12.3667 4.02067 12.2417 4.062 12.1251C4.104 12.0084 4.175 11.9001 4.275 11.8001L10.875 5.20008C11.0583 5.01675 11.2873 4.92075 11.562 4.91208C11.8373 4.90408 12.075 5.00008 12.275 5.20008C12.475 5.38342 12.5793 5.61242 12.588 5.88708C12.596 6.16242 12.5 6.40008 12.3 6.60008L7.4 11.5001H18.575C18.8583 11.5001 19.096 11.5957 19.288 11.7871C19.4793 11.9791 19.575 12.2167 19.575 12.5001C19.575 12.7834 19.4793 13.0207 19.288 13.2121C19.096 13.4041 18.8583 13.5001 18.575 13.5001H7.4L12.3 18.4001C12.4833 18.5834 12.5793 18.8167 12.588 19.1001C12.596 19.3834 12.5 19.6167 12.3 19.8001C12.1167 20.0001 11.8833 20.1001 11.6 20.1001C11.3167 20.1001 11.075 20.0001 10.875 19.8001Z" fill="#4169E1"/>
</g>
</svg>
