<svg width="40" height="40" viewBox="0 0 40 40" fill="none" xmlns="http://www.w3.org/2000/svg">
<g id="material-symbols:star-outline-rounded">
<path id="Vector" d="M14.7496 29.7083L19.9996 26.5417L25.2496 29.75L23.8746 23.75L28.4996 19.75L22.4162 19.2083L19.9996 13.5417L17.5829 19.1667L11.4996 19.7083L16.1246 23.75L14.7496 29.7083ZM19.9996 30.4583L13.0829 34.625C12.7773 34.8194 12.4579 34.9028 12.1246 34.875C11.7912 34.8472 11.4996 34.7361 11.2496 34.5417C10.9996 34.3472 10.8051 34.1039 10.6662 33.8117C10.5273 33.5194 10.4996 33.1933 10.5829 32.8333L12.4162 24.9583L6.29124 19.6667C6.01346 19.4167 5.84013 19.1317 5.77124 18.8117C5.70235 18.4917 5.7229 18.1794 5.8329 17.875C5.94402 17.5694 6.11068 17.3194 6.3329 17.125C6.55513 16.9306 6.86068 16.8056 7.24957 16.75L15.3329 16.0417L18.4579 8.625C18.5968 8.29167 18.8123 8.04167 19.1046 7.875C19.3968 7.70833 19.6951 7.625 19.9996 7.625C20.3051 7.625 20.6035 7.70833 20.8946 7.875C21.1857 8.04167 21.4012 8.29167 21.5412 8.625L24.6662 16.0417L32.7496 16.75C33.1385 16.8056 33.444 16.9306 33.6662 17.125C33.8885 17.3194 34.0551 17.5694 34.1662 17.875C34.2773 18.1806 34.2985 18.4933 34.2296 18.8133C34.1607 19.1333 33.9868 19.4178 33.7079 19.6667L27.5829 24.9583L29.4162 32.8333C29.4996 33.1944 29.4718 33.5211 29.3329 33.8133C29.194 34.1056 28.9996 34.3483 28.7496 34.5417C28.4996 34.7361 28.2079 34.8472 27.8746 34.875C27.5412 34.9028 27.2218 34.8194 26.9162 34.625L19.9996 30.4583Z" fill="#4169E1"/>
</g>
</svg>
