<svg width="44" height="46" viewBox="0 0 44 46" fill="none" xmlns="http://www.w3.org/2000/svg">
<g id="&#240;&#159;&#166;&#134; emoji &#34;waving hand&#34;">
<path id="Vector" d="M20.9488 41.6297C19.3792 40.37 4.80378 26.1959 4.64086 26.0409C3.99712 25.3972 3.59181 24.7296 3.48054 24.1177C3.36531 23.4819 3.56002 22.9256 4.07659 22.409C4.55741 21.9282 5.14551 21.6739 5.77733 21.6739C6.54822 21.6739 7.33898 22.0394 7.99861 22.703L14.6068 29.053C14.7221 29.1642 14.8731 29.2199 15.0201 29.2199C15.1751 29.2199 15.3261 29.1603 15.4413 29.045C15.6718 28.8146 15.6718 28.441 15.4453 28.2106L4.89517 17.3147C3.83817 16.2577 3.34146 14.6405 4.59714 13.3848C5.07796 12.904 5.66606 12.6497 6.29788 12.6497C7.06877 12.6497 7.85953 13.0152 8.51916 13.6788L19.3117 24.2011C19.4269 24.3124 19.5779 24.372 19.7289 24.372C19.8799 24.372 20.0349 24.3124 20.1501 24.1971C20.3806 23.9667 20.3845 23.5931 20.1541 23.3587L7.19195 10.0707C6.59193 9.47072 6.23032 8.75148 6.16675 8.05212C6.10714 7.34083 6.35748 6.6812 6.89393 6.14475C7.37474 5.66394 7.96285 5.40963 8.59466 5.40963C9.36555 5.40963 10.1563 5.7752 10.8159 6.43483L24.0363 19.3254C24.1516 19.4367 24.3026 19.4963 24.4536 19.4963C24.6046 19.4963 24.7596 19.4367 24.8748 19.3215C25.1053 19.091 25.1092 18.7175 24.8788 18.483L15.2784 8.61638C14.6744 8.01238 14.3128 7.29712 14.2532 6.59775C14.1936 5.88647 14.4439 5.22684 14.9803 4.69039C15.4612 4.20958 16.0493 3.95526 16.6811 3.95526C17.452 3.95526 18.2427 4.32084 18.9024 4.98444C22.423 8.44154 31.6141 17.4816 31.9241 17.8154C33.1043 18.63 33.3427 17.3982 33.4023 16.5995C33.4698 15.6696 32.4049 12.4232 33.0248 9.50251C34.0659 5.62023 37.066 6.25602 37.1336 6.28781C38.7787 7.0587 38.4647 8.21106 37.8806 10.5277L37.821 10.9847C37.2091 14.0126 41.4132 22.9852 41.7232 23.6567C43.3722 27.2648 45.2717 34.5804 38.9813 40.8707C32.087 47.765 23.5516 44.2324 20.9488 41.6297Z" fill="url(#paint0_radial_35_238)"/>
<path id="Vector_2" d="M29.7942 45.5C25.5662 45.5 21.97 43.4774 20.5514 42.0747C19.2758 41.0336 11.2252 33.2611 4.66863 26.8993C4.4024 26.641 4.24742 26.4939 4.23153 26.4741C3.48845 25.731 3.02751 24.9561 2.89637 24.225C2.74537 23.3945 3.00366 22.6434 3.65535 21.9878C4.2514 21.3917 4.98255 21.0778 5.77729 21.0778C6.7111 21.0778 7.64888 21.507 8.41978 22.2818L15.02 28.6238L4.46597 17.728C3.25003 16.5121 2.63809 14.4974 4.1759 12.9636C4.77195 12.3675 5.5031 12.0536 6.29784 12.0536C7.23165 12.0536 8.16944 12.4828 8.94033 13.2576L19.7249 23.772L6.76673 10.488C6.07531 9.79657 5.65013 8.95018 5.57463 8.10776C5.49913 7.20971 5.80908 6.38716 6.47268 5.72356C7.06873 5.12751 7.79988 4.81359 8.59462 4.81359C9.52446 4.81359 10.4622 5.23877 11.2371 6.01363L24.4535 18.9003L14.8532 9.03363C14.1578 8.33823 13.7326 7.49184 13.661 6.64942C13.5855 5.75535 13.8955 4.9328 14.5591 4.26919C15.1552 3.67314 15.8863 3.35922 16.681 3.35922C17.6149 3.35922 18.5526 3.78838 19.3235 4.56324L22.1885 7.37263C27.2947 12.3795 31.5624 16.5717 32.0194 17.0406C32.2419 17.2194 32.532 17.2869 32.6552 17.2273C32.7347 17.1876 32.8221 17.0048 32.8062 16.6194C32.7824 15.9438 32.687 15.1054 32.5876 14.2193C32.389 12.4391 32.1823 10.5953 32.4406 9.37934C33.0049 7.26932 34.1135 6.37524 34.9401 5.98979C36.0765 5.46527 37.1772 5.64806 37.3878 5.7474C39.4542 6.71697 39.0449 8.33823 38.4806 10.5873L38.4687 10.643L38.4051 11.1079C37.9918 13.1424 40.1138 18.7651 42.2357 23.3468L42.2675 23.4104C43.6861 26.5098 46.2412 34.4612 39.4065 41.2959C36.2633 44.4311 32.8618 45.5 29.7942 45.5ZM5.77729 22.2699C5.30839 22.2699 4.86334 22.4646 4.49776 22.8302C4.12026 23.2077 3.98913 23.5733 4.06861 24.0104C4.15603 24.4912 4.50968 25.0634 5.06202 25.6197C5.066 25.6237 5.22495 25.7787 5.49913 26.0409C14.8055 35.0731 20.4242 40.4415 21.3223 41.1647L21.37 41.2084C23.5634 43.4019 31.7134 47.2961 38.5601 40.4495C44.8663 34.1433 42.494 26.78 41.1787 23.9031L41.1509 23.8435C39.784 20.895 36.6766 13.7424 37.2289 10.8893L37.3203 10.2933C37.9322 7.86139 37.968 7.35276 36.9309 6.85208C36.6249 6.79645 34.4314 6.53021 33.593 9.65749C33.3824 10.6549 33.585 12.4788 33.7639 14.0881C33.8672 14.9981 33.9625 15.8604 33.9864 16.5796C34.0261 17.7121 33.4897 18.1453 33.1638 18.3042C32.5002 18.6261 31.7095 18.3519 31.2167 17.9386L31.1651 17.8909C30.9227 17.6287 25.1569 11.9741 21.3422 8.23094L18.4732 5.41361C17.4956 4.43211 16.236 4.26919 15.3896 5.11559C14.9763 5.52885 14.7896 6.01364 14.8333 6.55008C14.881 7.11037 15.183 7.6945 15.6876 8.19915L25.3079 18.0658C25.7609 18.5267 25.7609 19.2817 25.2999 19.7427C24.8589 20.1837 24.08 20.1917 23.627 19.7546L10.3987 6.86003C9.42114 5.8825 8.15751 5.71958 7.3151 6.56598C6.90183 6.97924 6.71507 7.46403 6.75878 8.00047C6.81044 8.56076 7.11244 9.14886 7.61312 9.64557L20.5792 22.9415C21.0362 23.4024 21.0322 24.1574 20.5713 24.6184C20.1302 25.0594 19.3513 25.0674 18.8983 24.6303L8.10188 14.104C7.12436 13.1186 5.86073 12.9596 5.01831 13.806C3.98913 14.8352 4.5375 16.1107 5.31634 16.8935L15.8744 27.7973C16.3274 28.2582 16.3234 29.0093 15.8625 29.4662C15.4174 29.9113 14.6465 29.9153 14.1935 29.4821L7.58531 23.1322C7.02899 22.5719 6.38923 22.2699 5.77729 22.2699Z" fill="#EDA600"/>
<path id="Vector_3" d="M30.9745 17.43C28.793 21.8845 29.0751 28.1192 32.3494 33.122C32.719 33.7975 33.3508 33.4677 33.0289 32.7723C29.0751 24.3124 33.2196 18.2168 33.2196 18.2168L30.9745 17.43Z" fill="#EDA600"/>
<path id="Vector_4" d="M22.3953 0.724669C23.5953 0.410749 24.8748 0.438565 26.1186 0.728643C27.3544 1.02667 28.5902 1.65451 29.5081 2.67972C30.4062 3.69698 30.9585 4.93279 31.1453 6.2282C31.3201 7.5117 31.1572 8.83493 30.5492 9.93167C30.4777 8.69983 30.2631 7.56733 29.9015 6.52226C29.7148 6.00171 29.4962 5.505 29.23 5.0361C28.9677 4.57118 28.6578 4.11024 28.328 3.73274C27.6564 2.95787 26.7464 2.35387 25.7252 1.88498C24.7 1.40019 23.5834 1.04256 22.3953 0.724669Z" fill="#B0BEC5"/>
<path id="Vector_5" d="M22.7251 4.49171C23.3887 4.0705 24.2192 3.98308 25.002 4.12215C25.7928 4.26123 26.5478 4.65463 27.1438 5.19902C27.7359 5.75136 28.1571 6.44675 28.4194 7.16996C28.5465 7.53156 28.6101 7.91304 28.6697 8.28259C28.6896 8.66406 28.6896 9.04553 28.63 9.42701C28.3558 9.13693 28.1412 8.84685 27.9386 8.56472C27.7041 8.29848 27.5213 8.01635 27.3107 7.75806C26.8975 7.24546 26.4961 6.78054 26.063 6.36728C25.6179 5.96594 25.149 5.61228 24.6046 5.30631C24.0642 4.99239 23.4563 4.73013 22.7251 4.49171Z" fill="#90A4AE"/>
<path id="Vector_6" d="M0.00759488 29.6689C0.567883 30.7656 1.15201 31.7829 1.83151 32.6809C2.50703 33.579 3.2819 34.3419 4.18392 34.8386C4.62103 35.081 5.14158 35.2916 5.65021 35.4506C6.16281 35.6135 6.69528 35.7248 7.24365 35.8003C8.34038 35.9354 9.49275 35.9115 10.7127 35.7248C9.76693 36.5473 8.5033 36.9844 7.21584 37.0798C5.91247 37.1672 4.58924 36.8851 3.40508 36.2175C2.21298 35.538 1.33877 34.4572 0.790408 33.3088C0.242042 32.1524 -0.0520102 30.9087 0.00759488 29.6689Z" fill="#B0BEC5"/>
<path id="Vector_7" d="M3.76269 29.204C4.14814 29.8716 4.52961 30.408 4.94685 30.8769C5.36011 31.3458 5.80516 31.7312 6.28995 32.0809C6.78268 32.4187 7.3231 32.7167 7.9112 33.0147C8.20526 33.1657 8.51918 33.2849 8.82912 33.4598C9.15099 33.5989 9.47683 33.7459 9.81857 33.9565C9.45696 34.0916 9.08741 34.1711 8.70991 34.2307C8.33639 34.2466 7.95094 34.2664 7.56947 34.2148C6.80652 34.1115 6.04358 33.8452 5.376 33.3803C4.72035 32.9074 4.17595 32.2518 3.87793 31.5087C3.57593 30.7696 3.48851 29.9431 3.76269 29.204Z" fill="#90A4AE"/>
</g>
<defs>
<radialGradient id="paint0_radial_35_238" cx="0" cy="0" r="1" gradientUnits="userSpaceOnUse" gradientTransform="translate(14.7961 14.0364) rotate(-45) scale(36.1634)">
<stop offset="0.3533" stop-color="#FFCA28"/>
<stop offset="0.8723" stop-color="#FFB300"/>
</radialGradient>
</defs>
</svg>
